<svg width="110" height="111" viewBox="0 0 110 111" fill="none" xmlns="http://www.w3.org/2000/svg">
<path fill-rule="evenodd" clip-rule="evenodd" d="M55 109.103C84.8234 109.103 109 84.9267 109 55.1033C109 25.28 84.8234 1.10333 55 1.10333C25.1766 1.10333 1 25.28 1 55.1033C1 84.9267 25.1766 109.103 55 109.103Z" stroke="#2F5BEA" stroke-width="2"/>
<path d="M75 80V75C75 72.3478 73.9464 69.8043 72.0711 67.9289C70.1957 66.0536 67.6522 65 65 65H45C42.3478 65 39.8043 66.0536 37.9289 67.9289C36.0536 69.8043 35 72.3478 35 75V80" stroke="#2F5BEA" stroke-width="2" stroke-linecap="round" stroke-linejoin="round"/>
<path d="M55 56C60.5228 56 65 51.5228 65 46C65 40.4772 60.5228 36 55 36C49.4772 36 45 40.4772 45 46C45 51.5228 49.4772 56 55 56Z" stroke="#2F5BEA" stroke-width="2" stroke-linecap="round" stroke-linejoin="round"/>
</svg>
