<svg width="158" height="40" viewBox="0 0 158 40" fill="none" xmlns="http://www.w3.org/2000/svg">
<path d="M54.6368 28.4835H50.3408V11.5708H54.6368V28.4835ZM49.4543 6.66059C49.4543 5.79677 49.7385 5.09207 50.3067 4.54649C50.8977 4.00092 51.6251 3.72813 52.4888 3.72813C53.3525 3.72813 54.0685 4.00092 54.6368 4.54649C55.2278 5.09207 55.5233 5.79677 55.5233 6.66059C55.5233 7.52442 55.2278 8.22912 54.6368 8.77469C54.0685 9.32026 53.3525 9.59305 52.4888 9.59305C51.6251 9.59305 50.8977 9.32026 50.3067 8.77469C49.7385 8.22912 49.4543 7.52442 49.4543 6.66059Z" fill="white"/>
<path d="M60.3357 13.6849H60.6766C61.0403 12.9574 61.5858 12.3778 62.3132 11.9458C63.0405 11.5139 63.9725 11.298 65.109 11.298C67.3365 11.298 68.8821 12.1845 69.7459 13.9576H70.0868C70.5642 13.1393 71.1665 12.4914 71.8939 12.014C72.644 11.5367 73.6554 11.298 74.9283 11.298C76.5876 11.298 77.94 11.8208 78.9856 12.8665C80.0539 13.9122 80.5881 15.4125 80.5881 17.3675V28.4835H76.2921V17.5721C76.2921 16.6628 76.0535 15.9694 75.5761 15.4921C75.0988 15.0147 74.4283 14.776 73.5645 14.776C72.5871 14.776 71.8257 15.0943 71.2802 15.7308C70.7574 16.3445 70.496 17.2311 70.496 18.3904V28.4835H66.2V17.5721C66.2 16.6628 65.9613 15.9694 65.484 15.4921C65.0067 15.0147 64.3361 14.776 63.4724 14.776C62.495 14.776 61.7336 15.0943 61.188 15.7308C60.6652 16.3445 60.4039 17.2311 60.4039 18.3904V28.4835H56.1079V11.5708H60.3357V13.6849Z" fill="white"/>
<path d="M86.2944 11.5708V13.8553H86.6353C87.931 12.014 89.7948 11.0934 92.2269 11.0934C93.5907 11.0934 94.8522 11.4571 96.0115 12.1845C97.1707 12.912 98.1026 13.9576 98.8073 15.3216C99.5119 16.6855 99.8642 18.254 99.8642 20.0272C99.8642 21.8003 99.5119 23.3688 98.8073 24.7327C98.1026 26.0967 97.1707 27.1423 96.0115 27.8698C94.8522 28.5972 93.5907 28.9609 92.2269 28.9609C89.7948 28.9609 87.9537 28.0744 86.7035 26.3012H86.3626V35.3032H82.0666V11.5708H86.2944ZM90.9313 25.2783C92.2951 25.2783 93.4089 24.8123 94.2726 23.8803C95.1364 22.9482 95.5682 21.6639 95.5682 20.0272C95.5682 18.3904 95.1364 17.1061 94.2726 16.174C93.4089 15.242 92.2951 14.776 90.9313 14.776C89.5675 14.776 88.4537 15.242 87.59 16.174C86.7263 17.1061 86.2944 18.3904 86.2944 20.0272C86.2944 21.6639 86.7263 22.9482 87.59 23.8803C88.4537 24.8123 89.5675 25.2783 90.9313 25.2783Z" fill="white"/>
<path d="M113.331 25.9603H112.99C112.103 27.8243 110.364 28.7563 107.773 28.7563C106.477 28.7563 105.33 28.4608 104.329 27.8698C103.329 27.256 102.557 26.4149 102.011 25.3465C101.465 24.2781 101.193 23.0505 101.193 21.6639V11.5708H105.489V21.4593C105.489 22.7323 105.796 23.687 106.409 24.3235C107.023 24.96 107.921 25.2783 109.103 25.2783C110.421 25.2783 111.444 24.8464 112.171 23.9826C112.899 23.096 113.262 21.8685 113.262 20.2999V11.5708H117.558V28.4835H113.331V25.9603Z" fill="white"/>
<path d="M123.327 28.4835H119.031V4.61469H123.327V28.4835Z" fill="white"/>
<path d="M124.84 16.3104C124.84 14.6737 125.442 13.4007 126.647 12.4914C127.852 11.5594 129.477 11.0934 131.522 11.0934C133.364 11.0934 134.898 11.5139 136.125 12.355C137.353 13.1734 138.182 14.2873 138.614 15.6967L134.727 16.8901C134.364 15.2079 133.295 14.3668 131.522 14.3668C130.704 14.3668 130.079 14.5146 129.647 14.8101C129.215 15.1056 128.999 15.5148 128.999 16.0376C128.999 16.5832 129.215 17.0038 129.647 17.2993C130.102 17.5721 130.795 17.7994 131.727 17.9812L132.613 18.1517C134.091 18.4473 135.296 18.7769 136.228 19.1406C137.16 19.5043 137.898 20.0272 138.444 20.7091C139.012 21.3911 139.296 22.289 139.296 23.4029C139.296 25.1533 138.66 26.5172 137.387 27.4947C136.114 28.4722 134.386 28.9609 132.204 28.9609C129.977 28.9609 128.158 28.4835 126.749 27.5288C125.363 26.574 124.522 25.2101 124.226 23.437L128.181 22.414C128.568 24.5963 129.909 25.6875 132.204 25.6875C133.159 25.6875 133.886 25.5056 134.386 25.1419C134.887 24.7782 135.137 24.3122 135.137 23.7439C135.137 23.221 134.898 22.8118 134.421 22.5163C133.943 22.1981 133.159 21.9367 132.068 21.7321L131.182 21.5616C129.159 21.1751 127.59 20.5955 126.476 19.8226C125.385 19.0269 124.84 17.8562 124.84 16.3104Z" fill="white"/>
<path d="M140.089 20.0272C140.089 18.2313 140.475 16.6628 141.248 15.3216C142.021 13.9576 143.078 12.912 144.419 12.1845C145.76 11.4571 147.271 11.0934 148.953 11.0934C150.635 11.0934 152.147 11.4571 153.488 12.1845C154.829 12.912 155.886 13.9576 156.659 15.3216C157.432 16.6628 157.818 18.2313 157.818 20.0272C157.818 21.823 157.432 23.4029 156.659 24.7668C155.886 26.108 154.829 27.1423 153.488 27.8698C152.147 28.5972 150.635 28.9609 148.953 28.9609C147.271 28.9609 145.76 28.5972 144.419 27.8698C143.078 27.1423 142.021 26.108 141.248 24.7668C140.475 23.4029 140.089 21.823 140.089 20.0272ZM144.385 20.0272C144.385 21.6411 144.805 22.9141 145.646 23.8462C146.487 24.7555 147.589 25.2101 148.953 25.2101C150.317 25.2101 151.419 24.7555 152.261 23.8462C153.102 22.9141 153.522 21.6411 153.522 20.0272C153.522 18.4132 153.102 17.1515 152.261 16.2422C151.419 15.3102 150.317 14.8442 148.953 14.8442C147.589 14.8442 146.487 15.3102 145.646 16.2422C144.805 17.1515 144.385 18.4132 144.385 20.0272Z" fill="white"/>
<circle cx="20" cy="20" r="20" fill="#FF2B1E"/>
<path d="M19.7585 2.89854C19.8929 2.76724 20.1075 2.76724 20.2418 2.89854L24.1544 6.72329C24.2315 6.7987 24.3395 6.83377 24.4462 6.8181L29.8597 6.0236C30.0456 5.99633 30.2192 6.12246 30.2507 6.30764L31.1679 11.7017C31.186 11.8081 31.2527 11.8999 31.3483 11.9499L36.1949 14.4892C36.3613 14.5763 36.4276 14.7804 36.3442 14.9487L33.9157 19.8518C33.8678 19.9484 33.8678 20.0619 33.9157 20.1586L36.3442 25.0616C36.4276 25.23 36.3613 25.4341 36.1949 25.5212L31.3483 28.0604C31.2527 28.1105 31.186 28.2023 31.1679 28.3087L30.2507 33.7027C30.2192 33.8879 30.0456 34.0141 29.8597 33.9868L24.4462 33.1923C24.3395 33.1766 24.2315 33.2117 24.1544 33.2871L20.2418 37.1118C20.1075 37.2431 19.8929 37.2431 19.7585 37.1118L15.8459 33.2871C15.7688 33.2117 15.6608 33.1766 15.5541 33.1923L10.1406 33.9868C9.95474 34.0141 9.78113 33.8879 9.74964 33.7027L8.83239 28.3087C8.81431 28.2023 8.7476 28.1105 8.65204 28.0604L3.80543 25.5212C3.63904 25.4341 3.57273 25.23 3.6561 25.0616L6.08458 20.1586C6.13246 20.0619 6.13246 19.9484 6.08458 19.8518L3.6561 14.9487C3.57273 14.7804 3.63904 14.5763 3.80542 14.4892L8.65204 11.9499C8.7476 11.8999 8.81431 11.8081 8.83239 11.7017L9.74964 6.30764C9.78113 6.12246 9.95474 5.99633 10.1406 6.0236L15.5541 6.8181C15.6608 6.83377 15.7688 6.7987 15.8459 6.72329L19.7585 2.89854Z" fill="#FF7C1E"/>
<path d="M19.8414 9.70624C19.9092 9.59129 20.0754 9.59129 20.1432 9.70624L21.2005 11.5004C21.2564 11.5952 21.3849 11.6156 21.4674 11.5426L23.0274 10.1631C23.1274 10.0747 23.2855 10.126 23.3144 10.2563L23.7656 12.2893C23.7894 12.3968 23.9054 12.4559 24.0064 12.412L25.9163 11.582C26.0387 11.5289 26.1732 11.6266 26.1604 11.7594L25.9613 13.8324C25.9508 13.942 26.0428 14.034 26.1524 14.0235L28.2253 13.8243C28.3581 13.8115 28.4559 13.9461 28.4027 14.0684L27.5727 15.9784C27.5288 16.0794 27.5879 16.1953 27.6954 16.2192L29.7284 16.6703C29.8587 16.6992 29.9101 16.8574 29.8217 16.9573L28.4421 18.5173C28.3692 18.5998 28.3895 18.7283 28.4844 18.7842L30.2785 19.8416C30.3934 19.9093 30.3934 20.0756 30.2785 20.1433L28.4844 21.2007C28.3895 21.2566 28.3692 21.3851 28.4421 21.4676L29.8217 23.0276C29.9101 23.1275 29.8587 23.2857 29.7284 23.3146L27.6954 23.7657C27.5879 23.7896 27.5288 23.9055 27.5727 24.0065L28.4027 25.9165C28.4559 26.0388 28.3581 26.1734 28.2253 26.1606L26.1524 25.9614C26.0428 25.9509 25.9508 26.0429 25.9613 26.1525L26.1604 28.2255C26.1732 28.3583 26.0387 28.456 25.9163 28.4028L24.0064 27.5729C23.9054 27.529 23.7894 27.5881 23.7656 27.6955L23.3144 29.7286C23.2855 29.8588 23.1274 29.9102 23.0274 29.8218L21.4674 28.4423C21.3849 28.3693 21.2564 28.3897 21.2005 28.4845L20.1432 30.2786C20.0754 30.3936 19.9092 30.3936 19.8414 30.2786L18.7841 28.4845C18.7282 28.3897 18.5996 28.3693 18.5172 28.4423L16.9572 29.8218C16.8572 29.9102 16.6991 29.8588 16.6702 29.7286L16.219 27.6955C16.1952 27.5881 16.0792 27.529 15.9782 27.5729L14.0683 28.4028C13.9459 28.456 13.8114 28.3583 13.8241 28.2255L14.0233 26.1525C14.0338 26.0429 13.9418 25.9509 13.8322 25.9614L11.7593 26.1606C11.6264 26.1734 11.5287 26.0388 11.5819 25.9165L12.4119 24.0065C12.4558 23.9055 12.3967 23.7896 12.2892 23.7657L10.2562 23.3146C10.1259 23.2857 10.0745 23.1275 10.1629 23.0276L11.5425 21.4676C11.6154 21.3851 11.5951 21.2566 11.5002 21.2007L9.70609 20.1433C9.59113 20.0756 9.59113 19.9093 9.70609 19.8416L11.5002 18.7842C11.5951 18.7283 11.6154 18.5998 11.5425 18.5173L10.1629 16.9573C10.0745 16.8574 10.1259 16.6992 10.2562 16.6703L12.2892 16.2192C12.3967 16.1953 12.4558 16.0794 12.4119 15.9784L11.5819 14.0684C11.5287 13.9461 11.6264 13.8115 11.7593 13.8243L13.8322 14.0235C13.9418 14.034 14.0338 13.942 14.0233 13.8324L13.8241 11.7594C13.8114 11.6266 13.9459 11.5289 14.0683 11.582L15.9782 12.412C16.0792 12.4559 16.1952 12.3968 16.219 12.2893L16.6702 10.2563C16.6991 10.126 16.8572 10.0747 16.9572 10.1631L18.5172 11.5426C18.5996 11.6156 18.7282 11.5952 18.7841 11.5004L19.8414 9.70624Z" fill="#FFCC18"/>
</svg>
