<?xml version="1.0" encoding="utf-8"?>
<!-- Generator: Adobe Illustrator 16.0.0, SVG Export Plug-In . SVG Version: 6.00 Build 0)  -->
<!DOCTYPE svg PUBLIC "-//W3C//DTD SVG 1.1//EN" "http://www.w3.org/Graphics/SVG/1.1/DTD/svg11.dtd">
<svg version="1.1" id="Camada_1" xmlns="http://www.w3.org/2000/svg" xmlns:xlink="http://www.w3.org/1999/xlink" x="0px" y="0px"
	 width="85.6px" height="97.4px" viewBox="0 0 85.6 97.4" style="enable-background:new 0 0 85.6 97.4;" xml:space="preserve">
<g>
	<path style="fill:#FFFFFF;" d="M2.9,13.2c0,0,4.5-3.4,6-4.6C9.3,8.3,9.6,8,10,7.7C9.9,8.2,9.7,8.7,9.6,9.1c-1.1,4.7-2.7,9.3-4.2,14
		c-0.4,1.1-0.7,2.3-1,3.5c-0.6,2.4,3.1,3.4,3.8,1c0.3-0.9,0.5-1.9,0.8-2.8c1.8-5.6,6.5-15.9,8.7-15.8s0,3.9-0.7,5.7
		c-1.4,4-3.1,7.9-4.6,11.9c-0.9,2.4,2.9,3.3,3.8,1c0.7-1.6,1.2-3.3,1.8-4.9c0.3-0.9,0.7-1.8,1-2.6c1.1-2.9,2.3-5.7,4-8.2
		c0.8-1.1,2.6-4.1,4.3-3.6c1.5,0.5-2.9,8.3-3.8,10c-1.5,3-3.9,7.7-0.5,10.2c1.8,1.3,4.7,0.1,6.4-0.9c1.7-1.1,3.2-2.5,4.7-3.9
		c0.9,2.6,3.1,5,6,5.1c3.4,0.2,6.3-1.7,8.4-4.1c0.1,0.9,0.4,1.6,0.9,2.3c1.9,3.4,7.8,0.9,9.8-1.6c2-2.6,5.6-10.2,7.2-14.7
		c0.2,0,0.5,0,0.7,0c0.8,0.1,1.7,0.1,2.5,0.1c-0.5,0.6-1,1.3-1.5,1.9c-2.2,3.1-4.8,7.9-3.9,11.9c0.9,3.7,4.5,5.2,8.1,4.1
		c1.9-0.5,2.9-1.6,4.6-2.6c2.4-1.4,4.8-2.7,7.4-3.7c2.2-0.8,1.2-4.4-1-3.5c-3.4,1.3-6.6,3-9.6,4.9c-1.2,0.8-1.7,1.2-3.3,1.3
		c-2,0.2-2.8-1.9-2.6-3.3c0.6-3.6,2.8-6.7,5.1-9.4c0.9-1,1.8-2,2.9-2.6c2.5-1.2,4.6-2.8,4.8-4.7c-0.1-1.1-0.9-1.8-2.1-1.4
		c-2.3,0.8-6,2.7-8.5,2.8c-2,0.1-4.2,0-5-1.5c-0.8-1.5,0-2.8,0.5-3.6c0.3-0.5,1.1-1.8-0.8-1.1c-1.9,0.8-3.5,1.8-3.9,4.3
		c-0.4,2.3,0.9,4.1,2.3,4.9c0.5,0.3-3.1,8.6-4.9,11c-1.8,2.5-3,3.6-4.7,4c-0.7,0.2-1.5-0.9-1.6-1.4c-0.4-2.1,0.2-3.7,0.7-5.7
		c1-4.1,2.8-8.4,5.4-12.2c1.3-1.9-2.7-2.1-4.2-0.3c-0.7,0.9,0,0-0.6,0.9c-3.7-2.7-8-3-12-0.5c-4.2,2.6-7.1,7.8-7.7,12.7
		c0,0.3,0,0.7-0.1,1c-0.6,1.8-4.6,4.2-7,5.5c-0.3,0.2-0.9,0.5-1.2-0.1c-0.2-0.6,0.6-2,1-3c1.4-3,3.1-5.9,4.5-9
		c1-2.3,1.8-4.8,0.6-7.2c-1.1-2-3.8-2.1-5.6-1.2c-1.3,0.6-2.4,1.5-3.4,2.5C21.9,5,21,3.8,18.9,4C17,4.2,15.4,5.5,14,7.2
		c0-0.5,0-0.9,0-1.4c-0.2-2.1-1.8-3.3-3.9-2.7C8.6,3.5,7.3,4.9,6.2,5.8c-1.7,1.4-3.4,2.8-5.2,4C-1.2,11.3,0.6,14.3,2.9,13.2z
		 M39.3,14.6c1.8-3.7,5.9-7.8,10.3-6.1c0.2,0.1,1.2,0.7,1.3,1.4c0.1,0.7-2.1,6.1-2.7,7.4c-0.6,1.5-1.1,2.6-3.5,4.9
		c-2.4,2.3-5.4,1.6-6.3-1.3C37.7,18.8,38.4,16.4,39.3,14.6z"/>
	<path style="fill:#FFFFFF;" d="M61.1,28.7c-1,0-4.3,4.7-8.5,4.7c-2.5,0-4.2-2.8-5.1-2.8c-0.9,0-4.3,2.8-7.3,2.8
		c-3,0-5.7-2.2-6.8-2.1c-2.3,0.1-5.5,2.1-7.3,2.1c-3.4,0-4.9-2.2-7.7-2.2c-2.9,0-5,2.2-7.2,2.2s-7,0-7,0c-1.5,0-2.7,1.2-2.7,2.7
		v31.6c0,1.5,1.2,2.7,2.7,2.7h77.4c1.5,0,2.7-1.2,2.7-2.7V36.1c0-1.5-1.2-2.7-2.7-2.7h-2.7c0,0-6.3,0-9.1,0
		C63.8,33.4,62.1,28.7,61.1,28.7z M28.8,41.6c0,0.2,0,1.9-0.6,2.6L12.8,61.6h14.5c0.8,0,1.4,0.6,1.4,1.3v2.3c0,0.7-0.6,1.3-1.4,1.3
		H8.1c-0.8,0-1.4-0.6-1.4-1.3v-2.3c0-0.2,0-1.9,0.6-2.5l15.4-17.5H8.1c-0.8,0-1.4-0.6-1.4-1.3v-2.3c0-0.7,0.6-1.3,1.4-1.3h19.3
		c0.8,0,1.4,0.6,1.4,1.3V41.6z M53.7,41.6c0,0.7-0.6,1.3-1.4,1.3H36.5v6.9h7.1c0.8,0,1.4,0.6,1.4,1.3v2.3c0,0.7-0.6,1.3-1.4,1.3
		h-7.1v6.9h15.7c0.8,0,1.4,0.6,1.4,1.3v2.3c0,0.7-0.6,1.3-1.4,1.3H33c-0.8,0-1.4-0.6-1.4-1.3v-26c0-0.7,0.6-1.3,1.4-1.3h19.3
		c0.8,0,1.4,0.6,1.4,1.3V41.6z M78.9,39.2v2.3c0,0.7-0.6,1.3-1.4,1.3H61.8v6.9h7.1c0.8,0,1.4,0.6,1.4,1.3v2.3c0,0.7-0.6,1.3-1.4,1.3
		h-7.1v6.9h15.7c0.8,0,1.4,0.6,1.4,1.3v2.3c0,0.7-0.6,1.3-1.4,1.3H58.2c-0.8,0-1.4-0.6-1.4-1.3v-26c0-0.7,0.6-1.3,1.4-1.3h19.3
		C78.3,37.9,78.9,38.5,78.9,39.2z"/>
	<path style="fill:#FFFFFF;" d="M65.8,76.1c3.9-1.2,8.1,0.9,12,0.8c1.7,0,1.7-2.5,0-2.5c-4,0.1-7.8-1.5-11.9-0.9
		c-4.3,0.6-6.1,5.6-3.1,8.7c1.6,1.7,3.9,2.4,6.1,3.4c1.5,0.6,3,1.4,3.2,3.1c0.2,1.7-1.3,2.9-2.7,3.7c-2.2,1.2-4.9,1.8-7.7,2
		c0.6-0.7,1-1.5,1-2.4c0.4-4.7-3.9-6.2-8.1-7c2-1.6,3.1-4.2,1.8-6.9c-1.7-3.5-6.4-4.7-10.2-4.5c-4.5,0.3-4.7,4.3-4.2,7.6
		c0.4,2.9,0.5,5.9-0.1,8.8c-0.3,1.4-0.7,2.8-1.7,3.9c-1.1,1.2-3.7,1.1-4.3-0.5c-0.6-1.6,0-3.7,0.2-5.4c0.3-2.7,0.1-5.4-0.6-8
		c-1.2-4.3-5.6-7.1-10.2-5.4c-4.6,1.7-4,6.3-4.2,10.2c-0.2,2.9-0.8,6.5-3.5,8.4c-2.8,2-6.2,0.1-7.2-2.6C9,87.5,8.8,84.1,9.6,80.5
		c0.5-2.2,1.1-4.1,1.7-5.6c0.6-1.5-1.9-2.1-2.6-0.7c-0.6,1.5-1.2,3.3-1.6,5.4c-0.5,2.7-0.7,4.9-0.4,7.5c0.5,3.9,1.8,7.6,6,9.1
		c4.5,1.6,8.2-2,9.7-5.6c1.1-2.7,0.8-5.1,1.2-6.4c0.1-0.6,8.5-3.9,9-3.8c0.6,0.1,0.9,5.3,0.7,7.6c-0.3,3.3-1.3,7.4,2.9,8.9
		c7.6,2.6,8.7-8,8.5-12.4c0-1.2-0.2-2.5-0.4-3.7c-0.3-2.1-0.7-4.5,2.2-4.7c2.1-0.1,4.6,0.5,6.2,1.7c2.9,2.3,0.5,6.1-2.7,6.5
		c-1.4,0.2-2,2.2-0.4,2.4c3.3,0.6,8.5,0.3,10,3.9c1,2.4-1.7,3.6-4.3,4c-1.4,0-2.7-0.1-4-0.2c-1.6-0.1-1.7,2-0.4,2.4
		c1.4,0.4,3.3,0.3,5.1,0.2c4.3-0.3,8.7-0.3,12.7-1.7c2.2-0.8,4.5-2.2,5.3-4.4c0.9-2.3,0.2-4.8-1.8-6.2c-2-1.4-4.5-2-6.7-3.2
		C63.5,80.1,63,76.9,65.8,76.1z M23.6,81.3c-0.5-0.3,0.1-3.1,1.9-4.3c2.6-1.7,5.7,0.3,5.8,1.2C31.5,78.5,24,81.5,23.6,81.3z"/>
</g>
</svg>
