<svg width="675" height="223" viewBox="0 0 675 223" fill="none" xmlns="http://www.w3.org/2000/svg">
<path d="M65.1418 130.641C62.1581 130.641 60.2247 127.493 61.5746 124.832L121.955 5.80964C123.304 3.14874 121.371 0 118.387 0H72.8475C71.354 0 69.9848 0.832132 69.297 2.15792L0.449406 134.861C0.154133 135.43 0 136.062 0 136.703V169.553C0 171.762 1.79086 173.553 4 173.553H101.784C103.993 173.553 105.784 175.344 105.784 177.553V218.504C105.784 220.713 107.575 222.504 109.784 222.504H154.358C156.567 222.504 158.358 220.713 158.358 218.504V177.553C158.358 175.344 160.149 173.553 162.358 173.553H184.627C186.836 173.553 188.627 171.762 188.627 169.553V134.641C188.627 132.432 186.836 130.641 184.627 130.641H162.358C160.149 130.641 158.358 128.851 158.358 126.641V86.962C158.358 84.7529 156.567 82.962 154.358 82.962H109.784C107.575 82.962 105.784 84.7529 105.784 86.962V126.641C105.784 128.851 103.993 130.641 101.784 130.641H65.1418Z" fill="white"/>
<path d="M551.142 130.641C548.158 130.641 546.225 127.493 547.575 124.832L607.955 5.80964C609.304 3.14874 607.371 0 604.387 0H558.848C557.354 0 555.985 0.832132 555.297 2.15792L486.449 134.861C486.154 135.43 486 136.062 486 136.703V169.553C486 171.762 487.791 173.553 490 173.553H587.784C589.993 173.553 591.784 175.344 591.784 177.553V218.504C591.784 220.713 593.575 222.504 595.784 222.504H640.358C642.567 222.504 644.358 220.713 644.358 218.504V177.553C644.358 175.344 646.149 173.553 648.358 173.553H670.627C672.836 173.553 674.627 171.762 674.627 169.553V134.641C674.627 132.432 672.836 130.641 670.627 130.641H648.358C646.149 130.641 644.358 128.851 644.358 126.641V86.962C644.358 84.7529 642.567 82.962 640.358 82.962H595.784C593.575 82.962 591.784 84.7529 591.784 86.962V126.641C591.784 128.851 589.993 130.641 587.784 130.641H551.142Z" fill="white"/>
<path fill-rule="evenodd" clip-rule="evenodd" d="M337.5 223C399.08 223 449 173.08 449 111.5C449 80.7578 436.559 52.9215 416.436 32.7514C415.576 26.3478 413.251 21.5918 409.589 18.6239C405.86 15.6017 401.362 14.9324 397.26 15.5039C396.499 15.61 395.742 15.7595 394.995 15.9473C378.207 5.82399 358.533 0 337.5 0C275.92 0 226 49.9202 226 111.5C226 173.08 275.92 223 337.5 223ZM390.522 35.5108C388.556 37.1401 387.29 38.9601 386.795 40.4462C386.096 42.5419 383.831 43.6746 381.735 42.976C379.639 42.2774 378.507 40.0121 379.205 37.9163C380.293 34.6524 382.632 31.6599 385.416 29.3517C388.228 27.0204 391.767 25.159 395.58 24.386C399.431 23.6054 403.666 23.9244 407.569 26.1404C411.47 28.3558 414.609 32.222 416.733 37.7453C417.526 39.8072 416.498 42.1216 414.436 42.9146C412.374 43.7077 410.06 42.679 409.267 40.6172C407.641 36.3905 405.551 34.1941 403.619 33.097C401.688 32.0006 399.485 31.7571 397.17 32.2265C394.817 32.7035 392.459 33.9046 390.522 35.5108ZM410 62C410 68.6274 404.627 74 398 74C391.373 74 386 68.6274 386 62C386 55.3726 391.373 50 398 50C404.627 50 410 55.3726 410 62ZM359 68C359 74.6274 353.627 80 347 80C340.373 80 335 74.6274 335 68C335 66.0982 335.442 64.2998 336.23 62.7019C329.194 62.0845 322.145 61.1539 313.925 59.9583C311.739 59.6404 310.224 57.6105 310.542 55.4243C310.86 53.2382 312.89 51.7237 315.076 52.0416C332.956 54.642 344.893 55.9285 363.406 55.4877C365.615 55.4352 367.448 57.1829 367.501 59.3914C367.553 61.5999 365.805 63.4329 363.597 63.4855C361.722 63.5301 359.912 63.5574 358.155 63.5679C358.7 64.9391 359 66.4345 359 68ZM352.092 125.249C357.527 122.611 374.623 116.887 390.612 112.498C398.576 110.312 406.141 108.492 411.728 107.565C414.546 107.097 416.726 106.88 418.162 106.918C418.351 106.923 418.514 106.932 418.653 106.943C418.914 109.664 418.976 113.9 418.925 118.384C418.867 123.457 418.669 128.648 418.503 131.872C418.433 133.251 419.493 134.426 420.872 134.497C422.251 134.567 423.426 133.507 423.497 132.128C423.665 128.851 423.866 123.593 423.925 118.441C423.983 113.354 423.906 108.166 423.475 105.146C423.238 103.484 421.939 102.695 421.088 102.374C420.229 102.05 419.231 101.944 418.293 101.919C416.367 101.869 413.806 102.151 410.909 102.632C405.067 103.602 397.308 105.475 389.288 107.677C373.31 112.063 355.806 117.889 349.909 120.751C348.666 121.354 348.148 122.849 348.751 124.091C349.354 125.334 350.849 125.852 352.092 125.249Z" fill="white"/>
</svg>
