<svg width="110" height="111" viewBox="0 0 110 111" fill="none" xmlns="http://www.w3.org/2000/svg">
<path fill-rule="evenodd" clip-rule="evenodd" d="M55 109.103C84.8234 109.103 109 84.9267 109 55.1033C109 25.28 84.8234 1.10333 55 1.10333C25.1766 1.10333 1 25.28 1 55.1033C1 84.9267 25.1766 109.103 55 109.103Z" stroke="#2F5BEA" stroke-width="2"/>
<path d="M41.75 35L35 44V75.5C35 76.6935 35.4741 77.8381 36.318 78.682C37.1619 79.5259 38.3065 80 39.5 80H71C72.1935 80 73.3381 79.5259 74.182 78.682C75.0259 77.8381 75.5 76.6935 75.5 75.5V44L68.75 35H41.75Z" stroke="#2F5BEA" stroke-width="2" stroke-linecap="round" stroke-linejoin="round"/>
<path d="M35 44H75.5" stroke="#2F5BEA" stroke-width="2" stroke-linecap="round" stroke-linejoin="round"/>
<path d="M64.25 53C64.25 55.3869 63.3018 57.6761 61.614 59.364C59.9261 61.0518 57.6369 62 55.25 62C52.8631 62 50.5739 61.0518 48.886 59.364C47.1982 57.6761 46.25 55.3869 46.25 53" stroke="#2F5BEA" stroke-width="2" stroke-linecap="round" stroke-linejoin="round"/>
</svg>
